<svg width="24" height="29" viewBox="0 0 24 29" fill="none" xmlns="http://www.w3.org/2000/svg">
<path d="M13.5 2C13.5 1.17157 12.8284 0.5 12 0.5C11.1716 0.5 10.5 1.17157 10.5 2L12 2L13.5 2ZM10.9393 28.0607C11.5251 28.6464 12.4749 28.6464 13.0607 28.0607L22.6066 18.5147C23.1924 17.9289 23.1924 16.9792 22.6066 16.3934C22.0208 15.8076 21.0711 15.8076 20.4853 16.3934L12 24.8787L3.51472 16.3934C2.92893 15.8076 1.97919 15.8076 1.3934 16.3934C0.807612 16.9792 0.807612 17.9289 1.3934 18.5147L10.9393 28.0607ZM12 2L10.5 2L10.5 27L12 27L13.5 27L13.5 2L12 2Z" fill="#12151C"/>
</svg>
