<?xml version="1.0" encoding="UTF-8"?>
<svg xmlns="http://www.w3.org/2000/svg" version="1.1" viewBox="0 0 1920 3050">
  <defs>
    <style>
      .cls-1 {
        fill: #fff;
        stroke: #000;
      }

      .cls-1, .cls-2 {
        stroke-miterlimit: 10;
      }

      .cls-2 {
        fill: none;
        stroke: #cfcfcf;
        stroke-linecap: round;
        stroke-width: .9px;
      }
    </style>
  </defs>
  <!-- Generator: Adobe Illustrator 28.7.1, SVG Export Plug-In . SVG Version: 1.2.0 Build 142)  -->
  <g>
    <g id="Layer_1">
      <rect class="cls-1" x="-264.9" y="-196.1" width="2769.7" height="3517.3"/>
      <g id="Layer_1-2" data-name="Layer_1">
        <g id="Layer_1-2">
          <g id="Layer_1-2-2" data-name="Layer_1-2">
            <path class="cls-2" d="M62.6-90.9V951.4"/>
            <path class="cls-2" d="M140.6-90.9v996.5"/>
            <path class="cls-2" d="M218.5-90.9v988.9"/>
            <path class="cls-2" d="M296.5-90.9V951.4"/>
            <path class="cls-2" d="M374.4,891.4h0V-90.9"/>
            <path class="cls-2" d="M452.3-90.9V951.4"/>
            <path class="cls-2" d="M530.3,895.9V-90.9"/>
            <path class="cls-2" d="M608.2-90.9v1001.1"/>
            <path class="cls-2" d="M686.2,918.3V-90.9"/>
            <path class="cls-2" d="M764.1,893.9V-90.9"/>
            <path class="cls-2" d="M842.1-90.9V951.4"/>
            <path class="cls-2" d="M920,891.8V-90.9"/>
            <path class="cls-2" d="M997.9-90.9V951.4"/>
            <path class="cls-2" d="M-119.6,789.3h1312.8"/>
            <path class="cls-2" d="M-119.6,711.4h1312.8"/>
            <path class="cls-2" d="M-119.6,633.4h1312.8"/>
            <path class="cls-2" d="M-119.6,555.5h1312.8"/>
            <path class="cls-2" d="M-119.6,477.5h1312.8"/>
            <path class="cls-2" d="M-119.6,399.6h1312.8"/>
            <path class="cls-2" d="M-119.6,321.7h1312.8"/>
            <path class="cls-2" d="M-119.6,243.7h1312.8"/>
            <path class="cls-2" d="M-119.6,165.8h1312.8"/>
            <path class="cls-2" d="M-119.6,87.8h1312.8"/>
            <path class="cls-2" d="M-119.6,9.9h1312.8"/>
            <path class="cls-2" d="M-83.6-115V927.4"/>
            <path class="cls-2" d="M-5.7,869.6V-115"/>
            <path class="cls-2" d="M1080.6,875.7V-115"/>
            <path class="cls-2" d="M1158.5,878.7V-115"/>
            <path class="cls-2" d="M1304.8-90.9V951.4"/>
            <path class="cls-2" d="M1382.7-90.9v996.5"/>
            <path class="cls-2" d="M1460.6-90.9v988.9"/>
            <path class="cls-2" d="M1538.6-90.9V951.4"/>
            <path class="cls-2" d="M1616.5,891.4h0V-90.9"/>
            <path class="cls-2" d="M1694.5-90.9V951.4"/>
            <path class="cls-2" d="M1772.4,895.9V-90.9"/>
            <path class="cls-2" d="M1850.4-90.9v1001.1"/>
            <path class="cls-2" d="M1928.3,918.3V-90.9"/>
            <path class="cls-2" d="M2006.2,893.9V-90.9"/>
            <path class="cls-2" d="M2084.2-90.9V951.4"/>
            <path class="cls-2" d="M2162.1,891.8V-90.9"/>
            <path class="cls-2" d="M2240.1-90.9V951.4"/>
            <path class="cls-2" d="M1122.6,789.3h1312.8"/>
            <path class="cls-2" d="M1122.6,711.4h1312.8"/>
            <path class="cls-2" d="M1122.6,633.4h1312.8"/>
            <path class="cls-2" d="M1122.6,555.5h1312.8"/>
            <path class="cls-2" d="M1122.6,477.5h1312.8"/>
            <path class="cls-2" d="M1122.6,399.6h1312.8"/>
            <path class="cls-2" d="M1122.6,321.7h1312.8"/>
            <path class="cls-2" d="M1122.6,243.7h1312.8"/>
            <path class="cls-2" d="M1122.6,165.8h1312.8"/>
            <path class="cls-2" d="M1122.6,87.8h1312.8"/>
            <path class="cls-2" d="M1122.6,9.9h1312.8"/>
            <path class="cls-2" d="M1158.5-115V927.4"/>
            <path class="cls-2" d="M1236.4,869.6V-115"/>
            <path class="cls-2" d="M2322.7,875.7V-115"/>
            <path class="cls-2" d="M2400.6,878.7V-115"/>
            <path class="cls-2" d="M62.6,689.2v1042.4"/>
            <path class="cls-2" d="M140.6,689.2v996.5"/>
            <path class="cls-2" d="M218.5,689.2v988.9"/>
            <path class="cls-2" d="M296.5,689.2v1042.4"/>
            <path class="cls-2" d="M374.4,1671.5h0v-982.3"/>
            <path class="cls-2" d="M452.3,689.2v1042.4"/>
            <path class="cls-2" d="M530.3,1676v-986.8"/>
            <path class="cls-2" d="M608.2,689.2v1001.1"/>
            <path class="cls-2" d="M686.2,1698.5v-1009.3"/>
            <path class="cls-2" d="M764.1,1674.1v-984.8"/>
            <path class="cls-2" d="M842.1,689.2v1042.4"/>
            <path class="cls-2" d="M920,1672v-982.7"/>
            <path class="cls-2" d="M997.9,689.2v1042.4"/>
            <path class="cls-2" d="M-119.6,1569.5h1312.8"/>
            <path class="cls-2" d="M-119.6,1491.6h1312.8"/>
            <path class="cls-2" d="M-119.6,1413.6h1312.8"/>
            <path class="cls-2" d="M-119.6,1335.7h1312.8"/>
            <path class="cls-2" d="M-119.6,1257.7h1312.8"/>
            <path class="cls-2" d="M-119.6,1179.8h1312.8"/>
            <path class="cls-2" d="M-119.6,1101.8h1312.8"/>
            <path class="cls-2" d="M-119.6,1023.9h1312.8"/>
            <path class="cls-2" d="M-119.6,946h1312.8"/>
            <path class="cls-2" d="M-119.6,868h1312.8"/>
            <path class="cls-2" d="M-119.6,790.1h1312.8"/>
            <path class="cls-2" d="M-83.6,665.2v1042.4"/>
            <path class="cls-2" d="M-5.7,1649.8v-984.6"/>
            <path class="cls-2" d="M1080.6,1655.9v-990.7"/>
            <path class="cls-2" d="M1158.5,1749.3v-993.8"/>
            <path class="cls-2" d="M1304.8,689.2v1042.4"/>
            <path class="cls-2" d="M1382.7,689.2v996.5"/>
            <path class="cls-2" d="M1460.6,689.2v988.9"/>
            <path class="cls-2" d="M1538.6,689.2v1042.4"/>
            <path class="cls-2" d="M1616.5,1671.5h0v-982.3"/>
            <path class="cls-2" d="M1694.5,689.2v1042.4"/>
            <path class="cls-2" d="M1772.4,1676v-986.8"/>
            <path class="cls-2" d="M1850.4,689.2v1001.1"/>
            <path class="cls-2" d="M1928.3,1698.5v-1009.3"/>
            <path class="cls-2" d="M2006.2,1674.1v-984.8"/>
            <path class="cls-2" d="M2084.2,689.2v1042.4"/>
            <path class="cls-2" d="M2162.1,1672v-982.7"/>
            <path class="cls-2" d="M2240.1,689.2v1042.4"/>
            <path class="cls-2" d="M1122.6,1569.5h1312.8"/>
            <path class="cls-2" d="M1122.6,1491.6h1312.8"/>
            <path class="cls-2" d="M1122.6,1413.6h1312.8"/>
            <path class="cls-2" d="M1122.6,1335.7h1312.8"/>
            <path class="cls-2" d="M1122.6,1257.7h1312.8"/>
            <path class="cls-2" d="M1122.6,1179.8h1312.8"/>
            <path class="cls-2" d="M1122.6,1101.8h1312.8"/>
            <path class="cls-2" d="M1122.6,1023.9h1312.8"/>
            <path class="cls-2" d="M1122.6,946h1312.8"/>
            <path class="cls-2" d="M1122.6,868h1312.8"/>
            <path class="cls-2" d="M1122.6,790.1h1312.8"/>
            <path class="cls-2" d="M1158.5,665.2v1042.4"/>
            <path class="cls-2" d="M1236.4,1649.8v-984.6"/>
            <path class="cls-2" d="M2322.7,1655.9v-990.7"/>
            <path class="cls-2" d="M2400.6,1658.9v-993.8"/>
            <path class="cls-2" d="M62.6,1468.8v1042.4"/>
            <path class="cls-2" d="M140.6,1468.8v996.5"/>
            <path class="cls-2" d="M218.5,1468.8v988.9"/>
            <path class="cls-2" d="M296.5,1468.8v1042.4"/>
            <path class="cls-2" d="M374.4,2451.1h0v-982.3"/>
            <path class="cls-2" d="M452.3,1468.8v1042.4"/>
            <path class="cls-2" d="M530.3,2455.6v-986.8"/>
            <path class="cls-2" d="M608.2,1468.8v1001.1"/>
            <path class="cls-2" d="M686.2,2478.1v-1009.3"/>
            <path class="cls-2" d="M764.1,2453.6v-984.8"/>
            <path class="cls-2" d="M842.1,1468.8v1042.4"/>
            <path class="cls-2" d="M920,2451.5v-982.7"/>
            <path class="cls-2" d="M997.9,1468.8v1042.4"/>
            <path class="cls-2" d="M-119.6,2349h1312.8"/>
            <path class="cls-2" d="M-119.6,2271.1h1312.8"/>
            <path class="cls-2" d="M-119.6,2193.2h1312.8"/>
            <path class="cls-2" d="M-119.6,2115.2h1312.8"/>
            <path class="cls-2" d="M-119.6,2037.3h1312.8"/>
            <path class="cls-2" d="M-119.6,1959.3h1312.8"/>
            <path class="cls-2" d="M-119.6,1881.4h1312.8"/>
            <path class="cls-2" d="M-119.6,1803.4h1312.8"/>
            <path class="cls-2" d="M-119.6,1725.5h1312.8"/>
            <path class="cls-2" d="M-119.6,1647.5h1312.8"/>
            <path class="cls-2" d="M-119.6,1569.6h1312.8"/>
            <path class="cls-2" d="M-83.6,1444.7v1042.4"/>
            <path class="cls-2" d="M-5.7,2429.3v-984.6"/>
            <path class="cls-2" d="M1080.6,2435.4v-990.7"/>
            <path class="cls-2" d="M1158.5,2438.5v-993.8"/>
            <path class="cls-2" d="M1304.8,1468.8v1042.4"/>
            <path class="cls-2" d="M1382.7,1468.8v996.5"/>
            <path class="cls-2" d="M1460.6,1468.8v988.9"/>
            <path class="cls-2" d="M1538.6,1468.8v1042.4"/>
            <path class="cls-2" d="M1616.5,2451.1h0v-982.3"/>
            <path class="cls-2" d="M1694.5,1468.8v1042.4"/>
            <path class="cls-2" d="M1772.4,2455.6v-986.8"/>
            <path class="cls-2" d="M1850.4,1468.8v1001.1"/>
            <path class="cls-2" d="M1928.3,2478.1v-1009.3"/>
            <path class="cls-2" d="M2006.2,2453.6v-984.8"/>
            <path class="cls-2" d="M2084.2,1468.8v1042.4"/>
            <path class="cls-2" d="M2162.1,2451.5v-982.7"/>
            <path class="cls-2" d="M2240.1,1468.8v1042.4"/>
            <path class="cls-2" d="M1122.6,2349h1312.8"/>
            <path class="cls-2" d="M1122.6,2271.1h1312.8"/>
            <path class="cls-2" d="M1122.6,2193.2h1312.8"/>
            <path class="cls-2" d="M1122.6,2115.2h1312.8"/>
            <path class="cls-2" d="M1122.6,2037.3h1312.8"/>
            <path class="cls-2" d="M1122.6,1959.3h1312.8"/>
            <path class="cls-2" d="M1122.6,1881.4h1312.8"/>
            <path class="cls-2" d="M1122.6,1803.4h1312.8"/>
            <path class="cls-2" d="M1122.6,1725.5h1312.8"/>
            <path class="cls-2" d="M1122.6,1647.5h1312.8"/>
            <path class="cls-2" d="M1122.6,1569.6h1312.8"/>
            <path class="cls-2" d="M1158.5,1444.7v1042.4"/>
            <path class="cls-2" d="M1236.4,2429.3v-984.6"/>
            <path class="cls-2" d="M2322.7,2435.4v-990.7"/>
            <path class="cls-2" d="M2400.6,2438.5v-993.8"/>
            <path class="cls-2" d="M62.6,2249v1042.4"/>
            <path class="cls-2" d="M140.6,2249v996.5"/>
            <path class="cls-2" d="M218.5,2249v988.9"/>
            <path class="cls-2" d="M296.5,2249v1042.4"/>
            <path class="cls-2" d="M374.4,3231.3h0v-982.3"/>
            <path class="cls-2" d="M452.3,2249v1042.4"/>
            <path class="cls-2" d="M530.3,3235.8v-986.8"/>
            <path class="cls-2" d="M608.2,2249v1001.1"/>
            <path class="cls-2" d="M686.2,3258.3v-1009.3"/>
            <path class="cls-2" d="M764.1,3233.8v-984.8"/>
            <path class="cls-2" d="M842.1,2249v1042.4"/>
            <path class="cls-2" d="M920,3231.7v-982.7"/>
            <path class="cls-2" d="M997.9,2249v1042.4"/>
            <path class="cls-2" d="M-119.6,3129.2h1312.8"/>
            <path class="cls-2" d="M-119.6,3051.3h1312.8"/>
            <path class="cls-2" d="M-119.6,2973.3h1312.8"/>
            <path class="cls-2" d="M-119.6,2895.4h1312.8"/>
            <path class="cls-2" d="M-119.6,2817.4h1312.8"/>
            <path class="cls-2" d="M-119.6,2739.5h1312.8"/>
            <path class="cls-2" d="M-119.6,2661.6h1312.8"/>
            <path class="cls-2" d="M-119.6,2583.6h1312.8"/>
            <path class="cls-2" d="M-119.6,2505.7h1312.8"/>
            <path class="cls-2" d="M-119.6,2427.7h1312.8"/>
            <path class="cls-2" d="M-119.6,2349.8h1312.8"/>
            <path class="cls-2" d="M-83.6,2224.9v1042.4"/>
            <path class="cls-2" d="M-5.7,3209.5v-984.6"/>
            <path class="cls-2" d="M1080.6,3215.6v-990.7"/>
            <path class="cls-2" d="M1158.5,3309v-993.8"/>
            <path class="cls-2" d="M1304.8,2249v1042.4"/>
            <path class="cls-2" d="M1382.7,2249v996.5"/>
            <path class="cls-2" d="M1460.6,2249v988.9"/>
            <path class="cls-2" d="M1538.6,2249v1042.4"/>
            <path class="cls-2" d="M1616.5,3231.3h0v-982.3"/>
            <path class="cls-2" d="M1694.5,2249v1042.4"/>
            <path class="cls-2" d="M1772.4,3235.8v-986.8"/>
            <path class="cls-2" d="M1850.4,2249v1001.1"/>
            <path class="cls-2" d="M1928.3,3258.3v-1009.3"/>
            <path class="cls-2" d="M2006.2,3233.8v-984.8"/>
            <path class="cls-2" d="M2084.2,2249v1042.4"/>
            <path class="cls-2" d="M2162.1,3231.7v-982.7"/>
            <path class="cls-2" d="M2240.1,2249v1042.4"/>
            <path class="cls-2" d="M1122.6,3129.2h1312.8"/>
            <path class="cls-2" d="M1122.6,3051.3h1312.8"/>
            <path class="cls-2" d="M1122.6,2973.3h1312.8"/>
            <path class="cls-2" d="M1122.6,2895.4h1312.8"/>
            <path class="cls-2" d="M1122.6,2817.4h1312.8"/>
            <path class="cls-2" d="M1122.6,2739.5h1312.8"/>
            <path class="cls-2" d="M1122.6,2661.6h1312.8"/>
            <path class="cls-2" d="M1122.6,2583.6h1312.8"/>
            <path class="cls-2" d="M1122.6,2505.7h1312.8"/>
            <path class="cls-2" d="M1122.6,2427.7h1312.8"/>
            <path class="cls-2" d="M1122.6,2349.8h1312.8"/>
            <path class="cls-2" d="M1158.5,2224.9v1042.4"/>
            <path class="cls-2" d="M1236.4,3209.5v-984.6"/>
            <path class="cls-2" d="M2322.7,3215.6v-990.7"/>
            <path class="cls-2" d="M2400.6,3218.7v-993.8"/>
          </g>
        </g>
      </g>
    </g>
  </g>
</svg>