<svg width="61" height="61" viewBox="0 0 61 61" fill="none" xmlns="http://www.w3.org/2000/svg">
<circle cx="30.5" cy="30.5" r="29.5" fill="#FEF1E7" stroke="#FC8701" stroke-width="2"/>
<path d="M36.1398 45.9997C35.4715 45.9997 34.9304 45.4171 34.9304 44.6969V39.6554C34.999 38.6708 34.7072 37.798 34.1344 37.162C33.8132 36.8047 33.7081 36.2816 33.8639 35.815C34.0208 35.3468 34.4095 35.016 34.8687 34.9602C38.3545 34.543 41.5808 33.3052 41.5808 27.1366C41.5808 25.6459 41.0553 24.2298 40.1 23.1498C39.7811 22.7891 39.6819 22.2633 39.8437 21.7963C40.1932 20.7856 40.2488 19.7025 40.0114 18.6731C39.4423 18.8144 38.3902 19.2124 36.8123 20.351C36.5219 20.5628 36.1593 20.6238 35.8228 20.5265C33.2616 19.7773 30.5531 19.7773 27.9911 20.5265C27.6535 20.6226 27.2914 20.561 27.0016 20.351C25.4393 19.2228 24.3926 18.8218 23.8002 18.682C23.5651 19.7086 23.6212 20.7886 23.9708 21.7963C24.1325 22.2633 24.0328 22.7885 23.7138 23.1498C22.7515 24.2387 22.226 25.666 22.2331 27.169C22.2331 33.2631 25.4662 34.5354 28.96 35.0023C29.4152 35.0633 29.799 35.3954 29.9512 35.8611C30.1041 36.328 29.999 36.8456 29.6795 37.2005C29.1149 37.8289 28.824 38.6913 28.8806 39.5641L28.8812 40.7039C28.8849 40.7613 28.8849 40.8172 28.8812 40.873L28.8835 44.6972C28.8835 45.4171 28.3421 46 27.6741 46C27.0062 46 26.4648 45.4174 26.4648 44.6972V42.4215C22.8158 43.0193 21.2708 40.9102 20.2079 39.4548C19.738 38.8124 19.3317 38.2564 18.9162 38.1444C18.2686 37.9702 17.8745 37.2628 18.0363 36.5657C18.1992 35.866 18.8558 35.4451 19.5029 35.6178C20.7204 35.9447 21.4572 36.9536 22.1079 37.8429C23.1192 39.2269 23.9388 40.3466 26.4648 39.7805V39.6557C26.4104 38.8479 26.5368 38.0208 26.8237 37.2487C23.4164 36.4116 19.8142 34.1625 19.8142 27.176C19.8048 25.2671 20.3921 23.4373 21.481 21.9501C21.0654 20.2524 21.1847 18.4607 21.8346 16.8277C21.9762 16.4722 22.2572 16.2024 22.6022 16.0926C23.0428 15.9494 24.6912 15.6848 27.8903 17.866C30.5296 17.1906 33.2846 17.1918 35.9225 17.866C39.1216 15.6851 40.7689 15.9497 41.2116 16.0923C41.5564 16.2024 41.8374 16.4719 41.9793 16.8274C42.6289 18.4601 42.7493 20.2521 42.3337 21.9498C43.413 23.4242 44 25.2384 44 27.1363C44 34.5299 39.8292 36.577 36.9998 37.2408C37.2868 38.0321 37.4094 38.8921 37.3457 39.7582L37.3494 44.6966C37.3494 45.4165 36.8086 45.9994 36.14 45.9994L36.1398 45.9997Z" fill="#FC8701"/>
</svg>
