<svg width="61" height="61" viewBox="0 0 61 61" fill="none" xmlns="http://www.w3.org/2000/svg">
<circle cx="30.5" cy="30.5" r="29.5" fill="#FEF1E7" stroke="#FC8701" stroke-width="2"/>
<path d="M22.7842 24.084V41.25H17.75V24.084H22.7842Z" stroke="#FC8701" stroke-width="1.5"/>
<path d="M20.2676 14.75C21.6574 14.75 22.7842 15.8767 22.7842 17.2666C22.7842 18.6565 21.6574 19.7832 20.2676 19.7832C18.8774 19.7832 17.75 18.6561 17.75 17.2666C17.75 15.877 18.8774 14.75 20.2676 14.75Z" stroke="#FC8701" stroke-width="1.5"/>
<path d="M31.72 24.084V26.6025H33.0032L33.2141 26.2021C33.8129 25.066 35.382 24.084 38.0413 24.084C40.3113 24.084 41.6885 24.6115 42.553 25.4258C43.376 26.201 43.8466 27.341 44.0745 28.8809L44.1096 29.1592C44.2084 29.9415 44.2463 30.8043 44.2463 31.7422V41.25H40.1458V32.9043C40.1457 31.8301 40.1048 30.4403 39.6077 29.3096C39.3509 28.7257 38.9614 28.1828 38.3743 27.791C37.7859 27.3985 37.0558 27.1953 36.1829 27.1953C35.3308 27.1954 34.6043 27.3629 34.0022 27.6973C33.396 28.034 32.9606 28.5154 32.6555 29.0703C32.0646 30.1453 31.9553 31.5146 31.9553 32.748V41.25H28.0159V24.084H31.72Z" stroke="#FC8701" stroke-width="1.5"/>
</svg>
