<svg width="96" height="96" viewBox="0 0 96 96" fill="none" xmlns="http://www.w3.org/2000/svg">
<circle cx="48" cy="48" r="47" fill="#FEF1E7" stroke="#FC8701" stroke-width="2"/>
<path d="M47.999 20.25C58.3467 20.25 66.75 28.6948 66.75 39.1289C66.75 40.9193 66.4966 42.6491 66.0332 44.2939C65.7294 45.367 65.4272 46.3189 64.9746 47.1553C62.947 50.8907 58.4523 58.1668 54.4404 64.5439C52.4396 67.7244 50.5663 70.6693 49.1934 72.8193C48.7353 73.5366 48.3318 74.1652 47.999 74.6846C47.6664 74.1653 47.2635 73.5373 46.8057 72.8203C45.4328 70.6703 43.5594 67.7246 41.5586 64.5439C37.798 58.5657 33.6127 51.7977 31.4336 47.8965L31.0254 47.1553C30.5726 46.3186 30.2686 45.3662 29.9678 44.2969V44.2959L29.8037 43.6748C29.4446 42.2181 29.25 40.6962 29.25 39.1289C29.25 28.6946 37.6515 20.25 47.999 20.25ZM48.001 29.0176C42.4472 29.0176 37.9434 33.5601 37.9434 39.1309C37.9434 41.5009 38.7618 43.6853 40.126 45.4111C41.9644 47.7394 44.8079 49.2432 47.999 49.2432H48.001C51.1925 49.2432 54.0332 47.7385 55.873 45.4111C57.2378 43.6867 58.0566 41.5025 58.0566 39.1309C58.0566 33.5626 53.5553 29.0176 48.001 29.0176Z" stroke="#FC8701" stroke-width="2.5"/>
</svg>
