<svg width="96" height="96" viewBox="0 0 96 96" fill="none" xmlns="http://www.w3.org/2000/svg">
<circle cx="48" cy="48" r="47" fill="#FEF1E7" stroke="#FC8701" stroke-width="2"/>
<path d="M37.3057 21.252C37.5208 21.2386 37.6491 21.2859 37.751 21.3516C37.8719 21.4296 38.0234 21.5809 38.1895 21.8643L38.1904 21.8652C39.2657 23.6982 40.3414 25.5241 41.416 27.3496L44.6357 32.8311C44.8738 33.2376 44.8681 33.4938 44.8311 33.6338C44.7932 33.7771 44.6659 34.0128 44.2461 34.2637H44.2451C43.4641 34.7304 42.6797 35.1923 41.8926 35.6523L39.5234 37.0303C38.8806 37.4032 38.2528 37.863 37.8877 38.583C37.5637 39.2221 37.5305 39.8991 37.5967 40.5605L37.6299 40.8428C37.6902 41.2794 37.7806 41.862 38.0088 42.4209C38.6183 43.9142 39.2315 45.6994 40.1064 47.2783V47.2793C41.7195 50.1884 43.3957 53.0685 45.1455 55.9033L45.8994 57.1152C46.7448 58.4623 47.8884 59.6087 48.9346 60.6016C49.5898 61.2232 50.343 61.6638 51.248 61.7168C52.1205 61.7679 52.9145 61.4424 53.627 61.0234L53.6279 61.0244C55.238 60.0775 56.7973 59.1349 58.3936 58.2197L58.3945 58.2207C58.7987 57.9892 59.0742 57.9822 59.2305 58.0186C59.3753 58.0523 59.5808 58.1603 59.7852 58.5039C60.9243 60.4188 62.0598 62.3359 63.1904 64.2559L66.5693 70.0225C66.7741 70.3734 66.7672 70.6095 66.7266 70.752C66.6885 70.8849 66.58 71.0775 66.2969 71.2744L66.1641 71.3594C64.5404 72.314 62.9651 73.2629 61.3516 74.1572C60.9572 74.3758 60.4989 74.5359 60.0596 74.6084V74.6094C57.7264 74.9952 55.4553 74.5638 53.1738 73.6221C49.3373 72.0391 46.1963 69.4242 43.3643 66.2949C37.8937 60.2496 33.763 53.3453 30.7432 45.7617C29.2195 41.9365 28.2633 38.0266 28.25 33.959C28.2445 31.4162 28.616 29.0468 29.709 26.8691V26.8682C30.2643 25.7601 30.8415 24.9335 31.6904 24.4209C33.3935 23.3932 35.0994 22.3777 36.8174 21.3877C36.9034 21.3381 37.0305 21.2927 37.167 21.2686L37.3057 21.252Z" stroke="#FC8701" stroke-width="2.5"/>
</svg>
